<svg xmlns="http://www.w3.org/2000/svg" viewBox="0 0 192 448">
  <g fill-rule="evenodd" fill='#c3c3c3'>
    <path d="M116 352q0-8.25-5.875-14.125t-14.125-5.875-14.125 5.875-5.875 14.125 5.875 14.125 14.125 5.875 14.125-5.875 5.875-14.125zM168 312v-176q0-3.25-2.375-5.625t-5.625-2.375h-128q-3.25 0-5.625 2.375t-2.375 5.625v176q0 3.25 2.375 5.625t5.625 2.375h128q3.25 0 5.625-2.375t2.375-5.625zM120 100q0-4-4-4h-40q-4 0-4 4t4 4h40q4 0 4-4zM192 96v256q0 13-9.5 22.5t-22.5 9.5h-128q-13 0-22.5-9.5t-9.5-22.5v-256q0-13 9.5-22.5t22.5-9.5h128q13 0 22.5 9.5t9.5 22.5z"></path>
  </g>
</svg>
