<svg xmlns="http://www.w3.org/2000/svg" viewBox="0 0 996 787">
  <title>Rooster Studio Logo SVG</title>
  <g fill-rule="evenodd" fill='#a6a6a6'>
    <path d="M886.772 213.844c34.577-41.438 57.276-91.375 73.08-142.61 3.72 29.595 1.808 59.495-2.698 88.85 12.288 5.598 25.43 8.875 38.707 11.162-25.6 32.768-68.77 45.636-109.09 42.598h.01zm52.53-41.847c-3.924 6.52-7.85 13.073-11.673 19.66 9.28-3.037 18.43-6.484 27.4-10.273-5.22-3.14-10.48-6.28-15.74-9.387h.01zM678.9 175.342c6.793-1.946 13.722 1.263 20.48 2.082 11.264 3.174 22.357-1.946 33.52-2.765 6.62 0 12.22 5.42 13.584 11.7 4.54 21.6-11.674 45.5-33.894 48.02-22.118 3.1-42.974-16.42-43.725-38.23-1.058-8.06 1.707-17.82 10.035-20.82v.01zm8.363 20.82c4.028 8.978 10.65 19.935 22.153 18.672 10.41-.41 15.223-10.82 19.183-18.876-13.66 3.106-27.65 3.072-41.34.205z"/>
    <path d="M679.003.204c21.163 15.19 43.35 29.696 60.11 49.937 28.67 32.5 43.007 74.76 50.004 116.88 12.05-7.06 25.088-13.92 39.492-13.58 14.19-.37 26.21 8.13 37.88 15.06-22.53 16.08-54 25.94-61.99 55.67 21.23-4.37 44.03-.51 61.57 12.46 10.68 7.68 19.59 17.51 29.11 26.56-21.64-2.11-44.03-6.76-65.33.04-18.5 5.7-37.31 17.31-44.82 35.91-4.34 12.32 3.21 23.76 14.57 28.33 24.75 11.81 32.63 44.61 21.03 68.34-4.64 11.44-13.93 19.94-23.86 26.8 39.29 41 46.66 109.33 16.04 157.32-8.5 13.83-20.93 24.58-34.07 33.83 12.46 30.72 24.44 61.64 37 92.33-6.18 2.46-12.32 4.92-18.47 7.41-12.11-30.31-24.16-60.69-36.28-91l-8.19 2.87c12.9 31.16 25.53 62.46 38.23 93.7 19.31-1.19 38.33-6.31 57.75-5.6 11.57.07 19.39 9.8 29.42 14.03 12.25 5.74 23.24 15.19 28.77 27.72 2.66 8.36 2.52 17.27 3.51 25.94-11.74-7.23-22.49-18.64-36.69-20.17-10.1 3.99-20.38 8.02-31.44 7.54-39.83.24-79.67-.51-119.5.14-16.62-.03-34.51 1.06-49.05-8.53-18.88 6.11-35.47 17.27-52.91 26.46 9.62-16.24 17.1-34.13 29.69-48.4 7.88-9.15 21.33-9.35 29.76-17.75 8.29-8.5 20.61-7.81 31.5-8.15-16.66-29.11-32.97-58.4-50.14-87.24-22.63-7.71-42.84-21.74-57.72-40.48-9.45 20.65-26.32 37.62-47.2 46.7-18.4 8.7-38.78 11.67-58.85 13.58 9.93 19.73 19.39 39.66 28.94 59.56-5.94 2.77-11.92 5.6-17.86 8.4-8.37-17.51-16.97-34.88-25.23-52.46-3.76-7.17-6.28-16.86-16.08-17.34 11.16 25.77 23.82 50.89 35.94 76.22 19.62-1.47 39.01-6.62 58.77-5.67 10.41.31 17.58 8.84 26.55 12.9 13.24 6.22 25.7 16.05 31.16 30.01 2.08 8.09 2.19 16.52 3.11 24.82-11.51-8.39-23.14-17.06-36.93-21.26-10.24 6.72-22.39 8.87-34.44 8.6-39.8 0-79.6-.48-119.44.1-15.57-.03-32.26.48-45.81-8.53-18.98 5.98-35.54 17.31-53.08 26.39 14.27-22.6 23.24-55.09 53.31-60.72 9.63-12.05 24.95-14.71 39.56-13.18-12.8-29.05-24.84-58.44-35.73-88.24-4.848-12.63-2.15-29.22 10.41-36.28 25.633-14.74 53.25-25.97 78.642-41.13 1.98-18.81.27-37.85 1.02-56.73-30.75 3.38-62.63 11.98-86.01 33.32-17.68 15.53-24.24 38.91-34.48 59.25-2.76-32.05-7.78-64.65-1.055-96.6 3.41-19.62 11.57-37.99 21.74-54.99-31.23-3.79-63.63 2.7-90.28 19.66-24.3 14.53-42.426 36.69-62.7 56.01 17.44-51.64 33.55-108.48 78.27-143.77-64.82-10.55-131.25 11.71-183.2 50.21 4.71-35.26 21.1-69.43 49.33-91.75 15.02-12.59 32.9-21.09 51.44-27.07C149.66 272.06 74.87 251.62.5 229.91c103.045.38 206.06.1 309.11.21 30.55 1.74 62.6-3.59 91.71 8.4 23.07 8.84 41.37 27.07 53.73 48.16 22.05 36.66 30.99 80.14 57.55 114.24-5.397 3.83-10.75 7.65-16.15 11.51-27.07-34.58-36.522-78.57-58.572-115.95-9.66-16.86-24.2-30.62-41.61-39.32 37.34 36.8 45.67 90.86 73.01 133.87 14.61 23.69 40.86 39.66 68.88 40.04 30.86.51 62.98 1.57 92.33-9.52 15.16-5.91 18.91-23.73 20.924-38.06-24.03-2.97-41.75 15.22-59.53 28.09 5.56-25.6 10.75-51.61 22.76-75.16-18.126 2.35-36.42 5.39-53.18 13.04-17.51 7.47-31.71 20.44-46.59 31.91 5.36-20.92 9.66-42.665 21.23-61.3 11.16-19.22 27.712-34.58 45.74-47.31-37.108-15.05-77.76-8.53-115.2 1.365 10.713-14.3 20.82-29.39 34.61-41.03 23.79-20.31 52.8-33.21 82.09-43.59-33.25-22.29-74.14-25.12-112.916-27.1 20.03-10.31 39.56-22.29 61.54-28.025 27.51-7.88 56.39-8.7 84.79-7.61-10.48-26.96-33.38-45.26-55.2-62.87 44.41-2.22 90.69 3.04 129.3 26.73 5.87-30.72-2.9-61.2-11.98-90.32l.1-.088zm32.734 49.322c1.843 25.156-.034 51.063-11.435 73.967-22.87-22.938-54.477-33.826-85.777-38.912 14.746 18.54 25.873 40.96 24.474 65.23-31.17-5.32-63.22-5.08-94.18 1.3 29.15 7.89 57.85 22.7 74.34 49.05-35.77 8.47-70.93 21.92-100.63 44.03 36.55-2.35 75.47 5.6 102.91 31.3-28.74 10.34-53.63 30.14-69.77 56.12 34.03-14.5 71.68-17.51 108.17-12.93-7.21 6.01-14.89 11.54-21.27 18.43-7.24 8.43-10.89 19.15-15.64 29.01 16.35-4.37 32.8-.88 48.81 2.9.31 24.03-4.4 52.43-25.98 66.77-17.92 10.17-39.05 12.6-59.26 14.47-37.28 2.26-79.33 4.1-109.74-21.6-46.25-38.16-49.63-104.04-86.6-148.78-16.96-20.72-44.1-30.21-70.31-29.97-58.98-.03-117.97-.03-176.95.04 58.78 17.21 117.38 35.02 176.03 52.7-33.45 4.06-68.34 1.85-100.18 14.61-25.67 9.49-47.04 28.47-61.31 51.65 24.61-11.4 50.35-20.65 77.17-24.95 39.25-7.41 79.87-1.84 116.9 12.56-12.46 9.7-26.32 17.44-38.6 27.38-17.27 14.34-28.64 34.1-38.74 53.8 41.02-27.51 95.26-36.21 141.31-16.14-9.63 10.99-19.7 21.92-25.98 35.3-8.98 17.82-12.22 37.82-14.1 57.51 32.63-32.39 80.04-44.71 124.96-44.44 0 29.94-.55 59.84-.41 89.74-28.71 14.88-57.89 28.91-86.39 44.17-8.94 3.58-4.51 13.48-2.12 20.04 15.56 40.52 32.32 80.59 50.21 120.15-17.79-6.38-36.05-13.65-55.33-11.06-1.03 4.78-1.98 9.59-2.94 14.41 36.89 2.84 74 .38 111 1.16 19.56-.27 39.46 2.02 58.71-2.66-2.56-.54-7.72-1.57-10.28-2.08.34-2.69 1.09-8.05 1.43-10.71-24.85-1.47-50.04 9.66-74.42 3.17-18.94-38.7-37-77.92-55.74-116.77 31.47 6.32 64.45 8.43 95.85.41 19.9-5.08 39.42-15.77 50.55-33.58 11.84-18.67 11.81-41.61 15.7-62.7 6.59 14.1 11.74 28.95 19.66 42.43 12.83 21.33 34.99 36.08 59.02 41.75 25.29 45.26 53.07 89.23 74.68 136.43-18.06-6.31-36.56-13.96-56.12-11.09-.96 4.71-1.91 9.46-2.87 14.2 36.76 2.97 73.73.41 110.59 1.23 19.73-.27 39.77 2.02 59.19-2.63-2.56-.54-7.71-1.6-10.27-2.15.38-2.66 1.06-8.02 1.4-10.68-24.58-1.09-48.91 8.64-73.32 3.89-4.88-4.54-5.77-11.67-8.47-17.44-16.9-42.7-34.68-85.02-51.78-127.62-3.82-7.3 4.51-14.88 11.74-12.8 9.66 6.9 17.03 16.32 25.32 24.71 24.13-10.89 44.06-31.3 51.74-56.9 14.57-45.09-1.33-102.91-45.43-125.37-15.06-8.05-23.62-23.38-31.51-37.82 5.77-3.14 11.57-6.28 17.34-9.45 6.35 10.93 12.15 23.38 23.58 29.9 5.84 3.45 13.45 2.87 18.95-.92 16.31-10.68 22.22-36.04 9.49-51.57-8.84-8.53-21.78-12.11-28.81-22.59-9.76-15.46-7.68-36.66 3.58-50.82 13.24-18.91 34.78-28.98 55.81-36.66-16.93-1.09-31.61 7.17-45.43 15.6.2-17.85-1.1-36.8 7.37-53.18 5.63-12.97 17.27-21.54 27.68-30.48-16.97 6.72-30.62 18.94-43.73 31.26-6.28-34.95-10.82-70.93-26.49-103.18-9.01-19.59-22.53-36.62-37.48-52.02l.1-.1z"/>
  </g>
</svg>
