<svg version="1.1" xmlns="http://www.w3.org/2000/svg" xmlns:xlink="http://www.w3.org/1999/xlink" width="512" height="448" viewBox="0 0 512 448">
  <path d="M462 84.75h-127.75v31h127.75v-31zM399 191.25q-22.5 0-36.5 13.125t-15.5 35.625h102q-4.5-48.75-50-48.75zM403 337.5q15.75 0 30.5-8t19-21.75h55.25q-25 76.75-106.75 76.75-53.5 0-85.125-33t-31.625-86.75q0-52 32.625-86.375t84.125-34.375q34.5 0 60.125 17t38.25 44.75 12.625 62q0 4.25-0.5 11.75h-164.5q0 27.75 14.375 42.875t41.625 15.125zM69.25 325h74q51.25 0 51.25-41.75 0-45-49.75-45h-75.5v86.75zM69.25 190.75h70.25q19.5 0 30.875-9.125t11.375-28.375q0-36-47.5-36h-65v73.5zM0 63.5h148.5q21.75 0 38.75 3.5t31.625 11.875 22.5 24.125 7.875 38.5q0 45.25-43 65.75 28.5 8 43 28.75t14.5 51q0 18.75-6.125 34.125t-16.5 25.875-24.625 17.75-30.25 10.5-33.5 3.25h-152.75v-315z"></path>
</svg>
