<svg version="1.1" xmlns="http://www.w3.org/2000/svg" xmlns:xlink="http://www.w3.org/1999/xlink" width="32" height="32" viewBox="0 0 32 32">
  <path d="M13.31 2.654c0.202 0.023 0.403-0.020 0.605-0.001l-0.094-0.098c1.279-0.014 2.559-0.012 3.838 0l-0.092 0.1c0.202-0.020 0.403 0.023 0.606 0.002l-0.078 0.1c0.164 0.001 0.328 0.002 0.494 0.002l-0.085 0.097c0.164 0.003 0.329 0.007 0.495 0.014l-0.052 0.101c0.090-0.003 0.272-0.009 0.363-0.012-0.012 0.027-0.038 0.082-0.051 0.11 0.118 0 0.356 0.001 0.475 0.002-0.020 0.025-0.059 0.075-0.079 0.1 0.151 0 0.301 0 0.453 0l0.072 0.244 0.083-0.599c-0.102 0.426 0.031 0.623 0.4 0.591l-0.056 0.111c0.062-0.012 0.186-0.037 0.247-0.050l-0.022 0.164c0.055-0.021 0.166-0.062 0.222-0.083l-0.033 0.141c0.092 0.002 0.278 0.004 0.371 0.005l-0.056 0.14c0.059-0.018 0.177-0.053 0.236-0.071l-0.019 0.168c0.062-0.016 0.185-0.046 0.246-0.061l-0.071 0.103c0.129 0.053 0.258 0.107 0.385 0.161l-0.038 0.123c0.057-0.022 0.172-0.064 0.23-0.086l-0.046 0.153c0.074-0.003 0.222-0.009 0.297-0.013 0.056 0.123 0.153 0.233 0.271 0.297 0.046 0.035 0.138 0.104 0.185 0.139l0.119-0.051-0.034 0.148 0.145-0.031-0.016 0.148c0.054-0.010 0.162-0.033 0.216-0.045l-0.011 0.181c0.039-0.020 0.116-0.058 0.156-0.078 0.047 0.135 0.137 0.229 0.271 0.279l-0.009 0.143 0.393-0.347-0.356 0.479 0.442-0.336-0.342 0.429c0.078-0.059 0.234-0.178 0.313-0.238l-0.064 0.257 0.168-0.046-0.086 0.127 0.162-0.025-0.035 0.157 0.080-0.049c0.047 0.135 0.138 0.228 0.273 0.277l0.019 0.172c0.033-0.077 0.1-0.231 0.133-0.308 0.037 0.115 0.111 0.346 0.149 0.46l-0.022-0.007c0.131 0.080 0.189 0.192 0.174 0.337l0.148-0.236-0.047 0.375 0.186-0.444-0.055 0.426 0.153-0.003-0.035 0.144 0.127-0.073c-0.016 0.087-0.046 0.262-0.061 0.349l0.193-0.429-0.065 0.43 0.156-0.005-0.021 0.149 0.407-0.084-0.409 0.208 0.374-0.074-0.247 0.172 0.217-0.057c-0.018 0.054-0.052 0.161-0.069 0.214l0.103-0.019c0.025 0.155 0.115 0.243 0.271 0.267-0.021 0.042-0.061 0.126-0.081 0.168l0.133-0.034c0.024 0.099 0.073 0.297 0.097 0.396l0.096-0.578c0.014 0.185 0.041 0.554 0.054 0.739l0.126-0.010c-0.014 0.048-0.039 0.144-0.053 0.193l0.082 0.007c0.036 0.148 0.128 0.236 0.276 0.265-0.022 0.043-0.065 0.128-0.087 0.17l0.186-0.024c-0.017 0.058-0.050 0.176-0.067 0.234l0.164-0.026c-0.014 0.063-0.041 0.19-0.054 0.254l0.114-0.066c-0.033 0.359 0.155 0.495 0.564 0.406l-0.501 0.059 0.012 0.080 0.168-0.006c-0.007 0.057-0.022 0.172-0.029 0.23l0.151-0.012c-0.019 0.057-0.056 0.172-0.075 0.231l0.145-0.049c0.002 0.091 0.007 0.272 0.009 0.364l0.144-0.020c-0.025 0.056-0.074 0.168-0.099 0.224l0.14-0.047c0.007 0.212 0.005 0.431 0.115 0.621 0.003 0.068 0.009 0.204 0.011 0.272l0.091-0.076c0.003 0.098 0.009 0.293 0.012 0.391l0.089-0.075c0.004 0.163 0.007 0.326 0.008 0.489l0.096-0.075c0.005 0.187 0.010 0.373 0.018 0.56l0.497 0.051-0.428 0.063c0.031 0.323 0.034 0.648 0.043 0.972 0.022-0.023 0.067-0.069 0.088-0.091-0.016 0.87 0.010 1.739-0.015 2.609-0.145 0.351-0.091 0.741-0.092 1.11l-0.114-0.063c0.005 0.16 0.014 0.32 0.024 0.48-0.030-0.017-0.089-0.049-0.118-0.065-0.001 0.121-0.002 0.363-0.003 0.484l-0.105-0.058c0.002 0.093 0.006 0.281 0.007 0.375l-0.103-0.068c0 0.095 0.001 0.284 0.002 0.378l-0.077-0.065c-0.015 0.074-0.045 0.222-0.059 0.296 0.088 0.107 0.265 0.321 0.353 0.429l-0.417-0.382c-0.005 0.189-0.018 0.566-0.023 0.755l-0.143-0.465c0.012 0.118 0.036 0.355 0.049 0.474l-0.146-0.064c0.018 0.060 0.053 0.182 0.072 0.242l-0.166-0.020c0.015 0.055 0.043 0.165 0.056 0.22l-0.268 0.029c0.125 0.039 0.375 0.121 0.501 0.161-0.363-0.115-0.526 0.003-0.488 0.356l-0.192-0.055c0.075 0.080 0.224 0.24 0.299 0.32l-0.259-0.141c-0.054 0.132-0.107 0.264-0.159 0.397l-0.102-0.077 0.050 0.142c-0.035 0.010-0.108 0.031-0.143 0.042l0.045 0.17-0.149 0.016c0.011 0.045 0.033 0.134 0.045 0.18-0.064 0.023-0.192 0.068-0.256 0.090l0.566 0.084-0.503 0.037c-0.045 0.052-0.133 0.156-0.178 0.207l0.059 0.132-0.126-0.058-0.001 0.134-0.13 0.021 0.053 0.103-0.148-0.010c0.005 0.055 0.017 0.167 0.022 0.223l-0.167-0.007c0.018 0.036 0.055 0.108 0.073 0.144-0.126 0.057-0.219 0.148-0.279 0.272l-0.145-0.008 0.356 0.4-0.492-0.363 0.303 0.372-0.401-0.238c0.101 0.081 0.302 0.244 0.404 0.325l-0.395-0.133 0.021 0.114c-0.211 0.097-0.392 0.262-0.477 0.481l-0.097-0.027c0.016 0.057 0.047 0.17 0.062 0.228-0.059-0.012-0.176-0.037-0.234-0.050l0.023 0.091c-0.207 0.097-0.397 0.252-0.462 0.48l-0.098-0.080 0.032 0.184c-0.057-0.012-0.171-0.038-0.229-0.051l0.060 0.142-0.225-0.068 0.227 0.204-0.275-0.085 0.027 0.099c-0.125 0.061-0.215 0.154-0.273 0.277-0.037-0.017-0.114-0.049-0.153-0.064l0.016 0.162c-0.055-0.006-0.165-0.019-0.22-0.024l0.006 0.145-0.111-0.050-0.005 0.137-0.14-0.016 0.057 0.131-0.192-0.047c-0.007 0.034-0.021 0.104-0.027 0.138l-0.105-0.030-0.055 0.579-0.082-0.579c-0.024 0.064-0.070 0.192-0.093 0.257-0.044-0.012-0.132-0.038-0.177-0.051l-0.001 0.095c-0.074 0.037-0.221 0.112-0.295 0.15l-0.078-0.036 0.074 0.091c-0.073 0.034-0.218 0.103-0.291 0.138l-0.106-0.031 0.108 0.126c-0.093 0.002-0.278 0.006-0.371 0.008l0.041 0.095c-0.584-0.209-0.099 1.543-0.369-0.038-0.024 0.070-0.073 0.208-0.098 0.277-0.051-0.018-0.154-0.052-0.205-0.070l0.051 0.113c-0.146 0.030-0.287 0.078-0.423 0.144-0.033-0.010-0.1-0.030-0.133-0.041l0.032 0.138c-0.090 0.001-0.27 0.003-0.361 0.004l0.050 0.099c-0.156-0.001-0.312-0.001-0.466-0.002l0.060 0.109c-0.096 0-0.285-0.001-0.38-0.001l0.074 0.102c-0.095-0.001-0.283-0.004-0.376-0.005l0.057 0.102c-0.124 0.002-0.37 0.005-0.494 0.007l0.090 0.106c-0.169-0.026-0.34 0.020-0.509-0.008l0.088 0.107c-0.373 0.005-0.767-0.050-1.121 0.095-0.835 0.023-1.672 0-2.507 0.015l0.077-0.083c-0.405-0.010-0.809-0.035-1.215-0.028l0.074-0.089c-0.197-0.003-0.396-0.008-0.593-0.016l0.078-0.096c-0.163-0.002-0.325-0.005-0.487-0.010l0.056-0.091c-0.095-0.001-0.283-0.005-0.377-0.006l0.074-0.101c-0.091 0.001-0.275 0.005-0.368 0.006 0.007-0.028 0.022-0.084 0.028-0.112-0.112 0-0.337 0-0.449 0.001l0.051-0.102c-0.089 0.001-0.267 0.004-0.356 0.005l0.043-0.107c-0.091-0.002-0.274-0.007-0.366-0.009l0.053-0.152c-0.056 0.022-0.168 0.067-0.224 0.088l-0.002-0.163c-0.054 0.011-0.164 0.033-0.218 0.045l0.016-0.161c-0.056 0.018-0.167 0.052-0.223 0.070l0.029-0.134c-0.090 0-0.27 0-0.361 0l0.059-0.138c-0.062 0.012-0.189 0.037-0.252 0.049l0.030-0.161c-0.059 0.017-0.176 0.049-0.235 0.064l0.021-0.187c-0.043 0.023-0.126 0.069-0.168 0.091-0.042-0.11-0.102-0.209-0.18-0.296-0.137-0.027-0.273-0.049-0.41-0.067l0.038-0.145c-0.044 0.023-0.13 0.068-0.174 0.090-0.030-0.154-0.122-0.248-0.274-0.284l0.019-0.113c-0.042 0.021-0.124 0.063-0.165 0.084-0.023-0.158-0.112-0.248-0.268-0.271l0.025-0.090c-0.058 0.009-0.175 0.026-0.233 0.034l0.025-0.194-0.333 0.245 0.271-0.341-0.122 0.084c-0.061-0.27-0.339-0.354-0.562-0.451l0.003-0.107-0.421 0.043 0.442-0.18-0.339 0.036 0.191-0.134c-0.063-0.014-0.189-0.041-0.252-0.054-0.038-0.033-0.115-0.102-0.154-0.136l0.004-0.092c-0.051 0.010-0.155 0.031-0.207 0.042 0.012-0.056 0.037-0.166 0.051-0.221l-0.084 0.007c-0.057-0.131-0.152-0.221-0.283-0.272l0.044-0.113-0.165 0.093 0.055-0.184-0.153 0.095 0.082-0.16-0.189 0.018c0.028-0.068 0.083-0.202 0.111-0.269l-0.397 0.344 0.342-0.469-0.396 0.294 0.253-0.324-0.14 0.017c-0.046-0.14-0.139-0.231-0.282-0.272 0.023-0.041 0.068-0.122 0.090-0.162l-0.178 0.027c0.006-0.056 0.020-0.17 0.026-0.227l-0.096 0.009c-0.039-0.039-0.117-0.117-0.157-0.157l0.049-0.070c-0.044-0.061-0.129-0.183-0.171-0.244l-0.046 0.084c-0.023-0.141-0.072-0.272-0.148-0.394l-0.107 0.058c0.019-0.058 0.055-0.175 0.074-0.233l-0.167 0.017c0.017-0.057 0.049-0.171 0.065-0.229l-0.164 0.046 0.068-0.16-0.17 0.041c0.013-0.059 0.043-0.177 0.057-0.236l-0.157 0.027c0.011-0.060 0.034-0.18 0.046-0.239l-0.163 0.024c0.018-0.059 0.052-0.176 0.070-0.235l-0.14 0.050c-0.001-0.092-0.002-0.275-0.003-0.367l-0.14 0.032c0.020-0.057 0.060-0.17 0.081-0.228l-0.159 0.035c0.009-0.065 0.028-0.196 0.037-0.263l-0.126 0.070c-0.001-0.090-0.004-0.27-0.006-0.361l-0.147 0.003 0.091-0.197-0.147 0.019c-0.004-0.154-0.008-0.309-0.015-0.462-0.024 0.012-0.073 0.035-0.098 0.047 0.003-0.114 0.008-0.344 0.010-0.459-0.029 0.014-0.089 0.039-0.118 0.052 0.004-0.090 0.012-0.273 0.017-0.364l-0.103 0.054c-0.006-0.162-0.009-0.325-0.011-0.487l-0.098 0.076c-0.002-0.164-0.002-0.328-0.003-0.491l-0.095 0.078c0.007-0.237 0.001-0.481-0.097-0.7-0.031-1.155-0.031-2.312-0.001-3.467 0.092-0.216 0.111-0.456 0.088-0.689 0.026 0.017 0.077 0.049 0.103 0.064 0-0.119 0-0.358 0-0.478l0.101 0.043c0.003-0.191 0.014-0.381 0.015-0.572l0.14 0.051 0.023-0.101-0.663-0.065 0.695-0.061c-0.008-0.179 0.016-0.356 0.004-0.535l0.114 0.048c-0.009-0.119-0.015-0.238-0.017-0.357l0.148 0.017-0.054-0.126c0.082-0.131 0.132-0.272 0.152-0.425l0.104 0.057c-0.014-0.060-0.041-0.179-0.053-0.238l0.162-0.003c-0.021-0.049-0.062-0.146-0.083-0.196l0.144 0.011c0.002-0.088 0.004-0.266 0.006-0.355l0.153 0.041c-0.024-0.050-0.073-0.151-0.097-0.201l0.175-0.027c-0.012-0.053-0.035-0.158-0.047-0.211l0.157 0.021c-0.013-0.057-0.038-0.174-0.051-0.231l0.181 0.024c-0.022-0.043-0.064-0.127-0.086-0.168 0.217-0.011 0.232-0.21 0.266-0.377l0.236-0.030c-0.159-0.028-0.475-0.084-0.633-0.111l0.583-0.052c-0.036-0.048-0.11-0.142-0.146-0.19 0.22 0.046 0.35-0.033 0.391-0.239l0.1 0.014c-0.016-0.039-0.049-0.118-0.065-0.158 0.171-0.023 0.233-0.155 0.263-0.306 0.079-0.065 0.154-0.134 0.224-0.207l0.161 0.010-0.436-0.152 0.408 0.001c0.056-0.168 0.187-0.292 0.281-0.438l0.1 0.001c-0.019-0.049-0.056-0.146-0.075-0.195 0.071 0 0.213-0.002 0.284-0.003l-0.143-0.422 0.267 0.436-0.092-0.376 0.198 0.197c-0.022-0.052-0.066-0.157-0.088-0.21 0.125-0.027 0.214-0.097 0.268-0.209 0.135-0.055 0.283-0.106 0.32-0.268l0.076 0.048-0.048-0.145 0.141 0.024-0.024-0.144 0.092 0.059 0.031-0.117 0.127-0.027-0.056-0.099c0.068 0.001 0.202 0.004 0.269 0.005-0.013-0.056-0.039-0.168-0.053-0.225 0.057 0.013 0.17 0.038 0.228 0.051l-0.009-0.086c0.128-0.059 0.219-0.153 0.273-0.283 0.039 0.022 0.118 0.064 0.158 0.086l-0.037-0.143c0.125-0.031 0.242-0.081 0.352-0.15 0.103-0.081 0.219-0.167 0.24-0.31 0.039 0.016 0.118 0.046 0.158 0.060l0.052-0.618c0.027 0.16 0.081 0.48 0.108 0.641l0.043-0.238c0.164-0.031 0.361-0.048 0.37-0.264 0.043 0.021 0.127 0.061 0.169 0.082l-0.024-0.179c0.058 0.014 0.174 0.039 0.231 0.053l-0.022-0.154c0.056 0.009 0.167 0.029 0.222 0.038l0.024-0.291c0.045 0.070 0.135 0.208 0.181 0.276l-0.023-0.212c0.088-0.002 0.263-0.005 0.35-0.006l-0.009-0.145c0.049 0.022 0.146 0.064 0.195 0.086v-0.163c0.060 0.012 0.181 0.038 0.241 0.052l-0.060-0.104c0.154-0.018 0.296-0.068 0.426-0.15 0.035 0.012 0.105 0.036 0.14 0.049l-0.043-0.138c0.097 0 0.291 0.001 0.389 0.002l-0.089-0.094c0.305-0.050 0.88 0.132 0.629-0.534l0.044 0.457c0.058-0.021 0.175-0.063 0.233-0.084l-0.059-0.056c0.155-0.004 0.311-0.007 0.466-0.007l-0.050-0.101c0.162-0.001 0.324-0.002 0.486-0.003l-0.078-0.101zM5.944 13.548l0.071 0.083c-0.148 0.015-0.286 0.057-0.415 0.13l-0.074-0.003 0.049 0.301c-0.053-0.072-0.158-0.217-0.211-0.29l0.005 0.16c-0.141 0.045-0.234 0.137-0.276 0.278-0.022-0.015-0.065-0.044-0.087-0.058-0.052 0.052-0.157 0.156-0.209 0.208 0.015 0.023 0.044 0.069 0.059 0.091-0.232 0.011-0.236 0.223-0.267 0.396l-0.080-0.073c0.004 0.095 0.011 0.283 0.015 0.377l-0.103-0.050c-0.012 0.329-0.012 0.66-0.008 0.99l0.1-0.082c0.001 0.158 0.003 0.317 0.003 0.476l0.070-0.047c0.005 0.278 0.286 0.422 0.322 0.688l0.093-0.518 0.041 0.534 0.060-0.067c0.046 0.128 0.132 0.218 0.259 0.272l0.007 0.079c0.050-0.010 0.15-0.032 0.198-0.043l0.004 0.158c0.053-0.017 0.16-0.052 0.214-0.069l-0.045 0.114c0.378 0.043 0.819 0.337 1.084-0.139l-0.292 0.35c0.481 0.038 0.964 0.029 1.447 0.009l-0.085-0.084c0.188 0.002 0.377-0.012 0.566-0.012l0.056-0.494c0.019 0.124 0.056 0.37 0.075 0.494 0.051-0.052 0.154-0.157 0.206-0.209 0.118-0.030 0.231-0.075 0.338-0.134l-0.073-0.034c0.323 0.044 0.327-0.45 0.044-0.49-0.014-0.128-0.025-0.256-0.032-0.383-0.103 0.001-0.207-0.001-0.31-0.005l0.027 0.149-0.196-0.034 0.348 0.439-0.399-0.361c-0.101 0.146-0.24 0.253-0.423 0.265l0.057 0.101c-0.038-0.007-0.114-0.022-0.153-0.029-0.552 0.242-1.175 0.050-1.756 0.108l0.195-0.199c-0.081 0.053-0.243 0.161-0.324 0.214l0.079-0.241-0.142 0.038c-0.009-0.038-0.027-0.115-0.036-0.154l-0.129 0.062c-0.157-0.186-0.246-0.429-0.455-0.569-0.198-0.356-0.090-0.778-0.095-1.165l0.135 0.053c-0.017-0.059-0.049-0.178-0.065-0.238l0.178 0.022c-0.019-0.043-0.057-0.129-0.076-0.171 0.159-0.026 0.25-0.118 0.273-0.276 0.043 0.020 0.127 0.060 0.169 0.080l-0.021-0.171c0.057 0.010 0.169 0.031 0.225 0.042l-0.001-0.163c0.054 0.018 0.161 0.053 0.214 0.071l-0.041-0.131c0.508-0.036 1.018-0.041 1.526-0.002l-0.058 0.053c0.056 0.023 0.169 0.068 0.225 0.089l0.059-0.523 0.062 0.597 0.035-0.017c0.071 0.032 0.211 0.096 0.281 0.128l0.003 0.101c0.052-0.016 0.155-0.045 0.206-0.059l-0.043 0.146 0.079-0.028c0.099 0.078 0.199 0.155 0.302 0.231l-0.089-0.191 0.168-0.036c-0.012-0.044-0.035-0.132-0.048-0.176 0.060-0.022 0.181-0.065 0.241-0.087l-0.539-0.087 0.545-0.058c-0.008-0.079-0.016-0.158-0.023-0.236-0.101-0.059-0.203-0.117-0.303-0.176l-0.101 0.033-0.014-0.148c-0.050 0.007-0.151 0.022-0.202 0.030l-0.043-0.277c-0.028 0.142-0.083 0.425-0.111 0.567 0.279-0.663-0.312-0.475-0.612-0.527l0.088-0.086c-0.574-0.012-1.148-0.017-1.722 0.016l0.058 0.095c-0.128-0.004-0.256-0.010-0.382-0.018zM11.257 13.562l0.028 0.137c-0.052-0.017-0.154-0.052-0.205-0.070l-0.008 0.154c-0.052-0.008-0.154-0.025-0.206-0.033l0.016 0.091c-0.13 0.057-0.257 0.121-0.38 0.19 0.021 0.029 0.061 0.087 0.082 0.116-0.251-0.017-0.402 0.164-0.503 0.368l-0.084-0.021c0.015 0.055 0.043 0.165 0.056 0.22l-0.116-0.033c-0.158 0.422-0.142 0.874-0.131 1.317-0.008 0.159 0.043 0.309 0.126 0.442-0.010 0.031-0.033 0.093-0.045 0.125l0.165-0.003c-0.015 0.055-0.043 0.165-0.057 0.22l0.087-0.024c0.046 0.123 0.127 0.212 0.243 0.269l0.007 0.074 0.131-0.007-0.010 0.138c0.038-0.015 0.114-0.045 0.152-0.060 0.033 0.146 0.123 0.239 0.27 0.278l-0.006 0.099c0.052-0.021 0.155-0.061 0.206-0.082l-0.025 0.144c0.092 0 0.276-0.002 0.369-0.003l-0.080 0.106c0.201-0.015 0.4 0.019 0.599 0.004l-0.076 0.093c0.472 0.017 0.943 0.018 1.415-0.003l-0.075-0.087c0.198 0.012 0.396-0.028 0.594-0.010-0.018-0.026-0.054-0.080-0.072-0.107 0.090 0.002 0.271 0.007 0.362 0.009l-0.016-0.139c0.036 0.012 0.109 0.039 0.146 0.053 0.139-0.086 0.252-0.207 0.324-0.355 0.036 0.017 0.11 0.049 0.146 0.064l-0.008-0.148 0.142 0.011-0.037-0.145 0.133 0.058-0.037-0.146 0.135 0.032-0.001-0.070c0.036-0.072 0.107-0.214 0.142-0.285l0.103 0.027c-0.019-0.057-0.056-0.171-0.075-0.228l0.138 0.049c0.019-0.505 0.017-1.010 0.003-1.515l-0.083 0.077c-0.024-0.148-0.050-0.295-0.077-0.442l-0.14 0.257c0.001-0.080 0.004-0.241 0.006-0.321-0.097-0.129-0.217-0.233-0.359-0.306l0.070-0.087-0.144 0.052c-0.007-0.038-0.022-0.116-0.030-0.155l-0.193 0.053 0.042-0.151-0.129 0.043c-0.008-0.036-0.025-0.108-0.033-0.144l-0.184 0.031-0.014-0.172c-0.027 0.017-0.080 0.050-0.107 0.065-0.188-0.135-0.426-0.129-0.646-0.137l0.088-0.081c-0.577-0.015-1.154-0.021-1.731 0.010l0.076 0.088c-0.16-0.001-0.32 0.004-0.479 0.004zM16.048 13.552c0.011 0.887 0.003 1.775 0.003 2.662 0.001 0.162 0.009 0.326 0.068 0.481 0.035 0.126 0.071 0.252 0.105 0.379l0.090-0.26c0.001 0.181 0.069 0.325 0.202 0.434 0.088 0.076 0.182 0.144 0.281 0.205l-0.006 0.099c0.052-0.021 0.156-0.063 0.208-0.084l-0.025 0.146c0.090-0.003 0.271-0.009 0.363-0.012-0.018 0.028-0.051 0.083-0.069 0.11 0.205-0.011 0.408 0.024 0.613 0.006l-0.095 0.089c0.544 0.023 1.090 0.025 1.634-0.004l-0.1-0.084c0.208 0.011 0.415-0.022 0.622-0.014l-0.102-0.103c0.123 0.006 0.244 0.010 0.367 0.015v-0.149l0.171 0.059c0.009-0.036 0.028-0.109 0.037-0.145l0.139 0.043-0.073-0.096c0.21-0.011 0.316-0.181 0.384-0.357l0.239-0.043c-0.144-0.028-0.433-0.084-0.578-0.112l0.525-0.041c0-0.059-0.001-0.178-0.001-0.237 0.027-0.143 0.084-0.284 0.074-0.432 0.004-0.85-0.005-1.701 0.003-2.551-0.312-0.003-0.624 0.006-0.935-0.028 0.005 0.788 0.007 1.576-0.001 2.364 0.022 0.224-0.076 0.517 0.189 0.647l-0.409-0.186 0.397 0.306-0.363-0.139c-0.003 0.073-0.007 0.218-0.010 0.291-0.050-0.021-0.149-0.061-0.198-0.082l0.008 0.169c-0.050-0.007-0.152-0.022-0.202-0.030l-0.025 0.151c-0.053-0.016-0.159-0.048-0.212-0.064l0.046 0.126c-0.542 0.025-1.086 0.024-1.629 0.005l0.058-0.075c-0.321 0.020-0.506-0.23-0.754-0.375 0.001-0.074 0.004-0.22 0.005-0.294l-0.101 0.060c0.015-0.956-0.004-1.912 0.010-2.868-0.318 0.024-0.637 0.022-0.955 0.017zM21.969 13.552c0.006 1.387 0.002 2.775 0.003 4.162 1.362-0.008 2.725 0.017 4.087-0.015l-0.087-0.093c0.122 0.007 0.243 0.007 0.366 0.002l-0.002-0.139 0.112 0.063c0.056-0.046 0.169-0.136 0.225-0.181l-0.058-0.048c0.046-0.011 0.137-0.036 0.183-0.048 0.039-0.135 0.068-0.272 0.083-0.41 0.023 0.018 0.070 0.054 0.092 0.072-0.014-0.255-0.001-0.509-0.017-0.764-0.037-0.002-0.111-0.005-0.149-0.007 0.026-0.047 0.076-0.141 0.101-0.188l-0.163 0.016 0.017-0.149-0.142 0.024 0.003-0.222c-0.035 0.064-0.106 0.194-0.14 0.26-0.018-0.085-0.053-0.255-0.071-0.339l-0.544-0.070c0.151-0.020 0.452-0.059 0.603-0.079 0.426-0.215 0.267-0.73 0.283-1.111l-0.062 0.011c-0.047-0.131-0.136-0.222-0.267-0.274l0.035-0.114-0.16 0.086 0.049-0.221-0.413 0.341 0.355-0.438-0.214 0.118 0.070-0.142c-0.091 0.002-0.274 0.008-0.365 0.011 0.016-0.028 0.048-0.082 0.064-0.109-1.292-0.007-2.584 0.001-3.876-0.005zM11.804 14.342l-0.057-0.145c0.548-0.044 1.097-0.043 1.645 0l-0.047 0.144c0.052-0.025 0.156-0.075 0.208-0.099l0.008 0.168c0.058-0.008 0.172-0.024 0.23-0.031l-0.033 0.176c0.044-0.022 0.13-0.068 0.174-0.090 0.030 0.154 0.121 0.247 0.272 0.279-0.012 0.038-0.037 0.114-0.050 0.153l0.746 0.063-0.77 0.077c0.065 0.021 0.197 0.062 0.263 0.083-0.001 0.361 0 0.721-0.009 1.083l-0.090-0.085c-0.014 0.205-0.041 0.616-0.054 0.821-0.017-0.158-0.050-0.474-0.066-0.632-0.052 0.092-0.156 0.277-0.209 0.369 0.014 0.019 0.039 0.055 0.053 0.074-0.176 0.002-0.331 0.086-0.483 0.162l0.022 0.136c-0.054-0.032-0.163-0.098-0.217-0.13l0.058 0.161c-0.544 0.029-1.089 0.028-1.633 0.004l0.030-0.149-0.181 0.090c-0.027-0.063-0.080-0.189-0.107-0.252l-0.079 0.622-0.062-0.648c-0.053 0.014-0.158 0.041-0.211 0.054 0.009-0.056 0.026-0.166 0.034-0.221-0.063-0.001-0.191-0.003-0.256-0.004 0.017-0.049 0.049-0.146 0.064-0.195l-0.164-0.014c0.014-0.050 0.041-0.15 0.054-0.199l-0.129 0.019c0-0.090-0.002-0.27-0.003-0.359l-0.095 0.058c0.002-0.198 0.002-0.397 0-0.595l0.141 0.049c-0.019-0.056-0.056-0.166-0.074-0.221l0.152-0.014c-0.009-0.051-0.028-0.153-0.038-0.204l0.169-0.005c-0.019-0.037-0.056-0.112-0.075-0.15 0.158-0.027 0.25-0.121 0.277-0.278 0.039 0.020 0.117 0.059 0.157 0.079l-0.009-0.169c0.053 0.009 0.159 0.029 0.212 0.039l0.021-0.167c0.053 0.024 0.159 0.072 0.212 0.095zM22.902 14.276c0.915 0.012 1.83-0.006 2.745 0.012l-0.068 0.091 0.576 0.054-0.56 0.091c0.058 0.016 0.174 0.048 0.232 0.063-0.003 0.088-0.010 0.266-0.015 0.354l-0.122-0.043c0.012 0.056 0.035 0.167 0.047 0.222l-0.25-0.037 0.285 0.127c-0.956 0.020-1.913-0.002-2.869 0.014 0.006-0.317 0.006-0.634-0.001-0.95zM22.902 15.932c0.96 0.016 1.921-0.015 2.881 0.020 0.031 0.126 0.111 0.207 0.238 0.244 0.003 0.18 0.002 0.361-0.001 0.54-0.115 0.050-0.198 0.131-0.248 0.245-0.957 0.027-1.914 0-2.871 0.017 0.009-0.355 0.009-0.712 0.001-1.066z"></path>
</svg>
