<svg version="1.1" xmlns="http://www.w3.org/2000/svg" xmlns:xlink="http://www.w3.org/1999/xlink" width="384" height="448" viewBox="0 0 384 448">
  <path d="M256 375q-10.5-60.25-35-124.5h-0.5l-0.5 0.25q-4 1.5-10.75 4.125t-25.25 12.25-34.25 20.5-32.75 28.625-25.75 37l-3.75-2.75q46 37.5 104.5 37.5 33 0 64-13zM209.75 223.25q-5.25-12.25-13.25-27.75-77.75 23.25-168.25 23.25-0.25 1.75-0.25 5.25 0 31 11 59.125t31 50.375q12.5-22.25 30.875-41.625t35.625-31.125 32.625-20.25 24.875-12l9.25-3.25q1-0.25 3.25-0.875t3.25-1.125zM183 170.25q-30-53.25-61-94.5-34.5 16.25-58.5 46.5t-32 68q75.5 0 151.5-20zM354 250q-52.5-15-102.25-7.25 21.75 59.75 32 117.25 27.75-18.75 46.25-47.375t24-62.625zM152.75 64.75q-0.25 0-0.5 0.25 0.25-0.25 0.5-0.25zM300.25 101q-46.25-41-108.25-41-19 0-38.75 4.75 32.75 42.5 61.5 95.5 17.25-6.5 32.5-15.125t24.125-15.375 16.375-14.25 9.375-10.125zM356 222.25q-0.75-58-37.25-102.5l-0.25 0.25q-2.25 3-4.75 6.125t-10.875 11.125-17.75 15.125-25 16.25-32.875 16.125q6.25 13.25 11 23.75 0.5 1.5 1.625 4.375t1.875 4.125q9-1.25 18.625-1.75t18.375-0.5 17.25 0.375 16 1 14.125 1.375 12 1.625 9.125 1.5 6.25 1.125zM384 224q0 52.25-25.75 96.375t-69.875 69.875-96.375 25.75-96.375-25.75-69.875-69.875-25.75-96.375 25.75-96.375 69.875-69.875 96.375-25.75 96.375 25.75 69.875 69.875 25.75 96.375z"></path>
</svg>
