<svg xmlns="http://www.w3.org/2000/svg" viewBox="0 0 448 448">
  <path d="M416 376V184q-8 9-17.25 16.5-67 51.5-106.5 84.5-12.75 10.75-20.75 16.75t-21.625 12.125T224.25 320h-.5q-12 0-25.625-6.125T176.5 301.75 155.75 285q-39.5-33-106.5-84.5Q40 193 32 184v192q0 3.25 2.375 5.625T40 384h368q3.25 0 5.625-2.375T416 376zm0-262.75v-6.125l-.125-3.25-.75-3.125-1.375-2.25-2.25-1.875L408 96H40q-3.25 0-5.625 2.375T32 104q0 42 36.75 71Q117 213 169 254.25q1.5 1.25 8.75 7.375t11.5 9.375 11.125 7.875T213 285.75t10.75 2.25h.5q5 0 10.75-2.25t12.625-6.875T258.75 271t11.5-9.375 8.75-7.375Q331 213 379.25 175q13.5-10.75 25.125-28.875T416 113.25zm32-9.25v272q0 16.5-11.75 28.25T408 416H40q-16.5 0-28.25-11.75T0 376V104q0-16.5 11.75-28.25T40 64h368q16.5 0 28.25 11.75T448 104z"/>
</svg>
