<svg version="1.1" xmlns="http://www.w3.org/2000/svg" xmlns:xlink="http://www.w3.org/1999/xlink" width="384" height="448" viewBox="0 0 384 448">
  <path d="M312 32q29.75 0 50.875 21.125t21.125 50.875v240q0 29.75-21.125 50.875t-50.875 21.125h-240q-29.75 0-50.875-21.125t-21.125-50.875v-240q0-29.75 21.125-50.875t50.875-21.125h240zM174.5 224q0-22-15.5-37.5t-37.5-15.5-37.5 15.5-15.5 37.5 15.5 37.5 37.5 15.5 37.5-15.5 15.5-37.5zM315.5 224q0-22-15.5-37.5t-37.5-15.5-37.5 15.5-15.5 37.5 15.5 37.5 37.5 15.5 37.5-15.5 15.5-37.5z"></path>
</svg>
