<svg version="1.1" xmlns="http://www.w3.org/2000/svg" xmlns:xlink="http://www.w3.org/1999/xlink" width="323" height="448" viewBox="0 0 323 448">
  <path d="M250 108.5l9.25-48.5q1.25-5.75-2.25-10t-8.75-4.25h-178q-5.75 0-9.625 4.25t-3.875 9.25v275.25q0 1.75 1.5 0.25l72.75-88q5.75-6.5 9.5-8.375t12-1.875h59.75q5.5 0 9.25-3.625t4.5-7.375q6-32.5 9.25-47.75 1-5.25-2.875-10t-9.125-4.75h-73.5q-7.25 0-12-4.75t-4.75-12v-10.5q0-7.25 4.75-11.875t12-4.625h86.5q4.5 0 8.75-3.375t5-7.375zM306.75 53q-3.75 18.25-13.375 66.625t-17.375 87.5-8.75 43.375q-1.5 5.5-2.25 8.125t-3.5 8.125-6.125 8.25-9.625 5.25-14.5 2.5h-67.75q-3.25 0-5.5 2.5-2 2.25-106.5 123.5-5.5 6.25-14.625 7.125t-12.125-1.375q-13.75-5.5-13.75-24.5v-352.5q0-13.75 9.5-25.625t30-11.875h222q23.75 0 31.75 13.25t2.5 39.75zM306.75 53l-39.5 197.5q1-4.25 8.75-43.375t17.375-87.5 13.375-66.625z"></path>
</svg>
