<svg xmlns="http://www.w3.org/2000/svg" viewBox="0 0 576 448">
  <path d="M359.25 228.25q0 52-21.75 92.625t-62 63.5-92.25 22.875q-37.25 0-71.25-14.5t-58.5-39-39-58.5T0 224t14.5-71.25 39-58.5 58.5-39 71.25-14.5q71.5 0 122.75 48l-49.75 47.75q-29.25-28.25-73-28.25-30.75 0-56.875 15.5T85 165.875 69.75 224 85 282.125t41.375 42.125 56.875 15.5q20.75 0 38.125-5.75T250 319.625 269.625 300t12.25-20.75 5.375-18.5h-104v-63h173q3 15.75 3 30.5zM576 197.75v52.5h-52.25v52.25h-52.5v-52.25H419v-52.5h52.25V145.5h52.5v52.25H576z"/>
</svg>
