<svg xmlns="http://www.w3.org/2000/svg" viewBox="0 0 435 440">
  <title>Ihor Orlovskyi Logo SVG</title>
  <g fill-rule="evenodd" fill='#c3c3c3'>
    <path d="M228.886 43.632c0 5.522-4.478 10-10 10h-2.047c-5.53 0-10-4.478-10-10s4.47-10 10-10h2.04c5.52 0 10 4.477 10 10zm203.407 182.923l-30.346 33.69c-3.696 4.105-10.02 4.435-14.123.74-4.104-3.697-4.435-10.02-.738-14.124l24.037-26.68-16.677-16.91-56.18 62.37c-3.696 4.11-10.02 4.44-14.122.74-4.104-3.69-4.435-10.02-.737-14.12l56.97-63.25-15.77-15.98-79.24 87.97c-3.697 4.107-10.022 4.437-14.124.74-4.104-3.695-4.434-10.02-.738-14.122l80.034-88.852-16.76-16.99-102.47 113.74L303 335.1c3.695 4.103 3.366 10.425-.738 14.12-4.104 3.7-10.427 3.368-14.123-.736l-15.83-17.574v61.048c0 5.522-4.48 10-10 10-5.53 0-10-4.478-10-10v-83.25l-24.46-27.15V429.73c0 5.523-4.48 10-10 10s-10-4.477-10-10V281.55L183.4 308.7v83.256c0 5.522-4.476 10-10 10s-10-4.478-10-10V330.9l-15.832 17.578c-3.696 4.104-10.02 4.434-14.123.738s-4.433-10.02-.737-14.123l71.687-79.586-102.45-113.747-16.76 16.993 80.03 88.854c3.697 4.104 3.367 10.427-.736 14.123-4.11 3.695-10.43 3.364-14.13-.738l-79.24-87.975-15.77 15.985 56.97 63.247c3.69 4.1 3.36 10.42-.74 14.12-4.11 3.69-10.43 3.36-14.13-.74l-56.17-62.37-16.67 16.91 24.04 26.685c3.692 4.104 3.362 10.427-.74 14.123-4.106 3.69-10.428 3.36-14.125-.74L3.43 226.55c-3.543-3.934-3.407-9.946.31-13.715l103.502-104.93c1.88-1.907 4.444-2.98 7.12-2.98h43.226L178.823 20h-22.417c-5.523 0-10-4.478-10-10s4.477-10 10-10h87.69c4.588 0 8.588 3.124 9.7 7.575l24.34 97.355h43.227c2.676 0 5.24 1.072 7.12 2.978l103.5 104.932c3.716 3.768 3.852 9.78.31 13.715zM178.205 104.93h79.316L236.29 20h-36.85l-21.233 84.93zm141.505 22.566l-2.53-2.565H118.546l-2.53 2.57L217.86 240.57 319.71 127.5zM260.824 143.3c-4.104-3.696-10.428-3.368-14.123.737l-28.84 32.016-28.83-32.016c-3.69-4.104-10.02-4.433-14.12-.738s-4.43 10.02-.73 14.12l36.268 40.26c1.896 2.1 4.597 3.31 7.43 3.31 2.833 0 5.534-1.2 7.43-3.31l36.27-40.27c3.697-4.108 3.367-10.43-.736-14.127z"/>
  </g>
</svg>
