<svg xmlns="http://www.w3.org/2000/svg" viewBox="0 0 384 448">
  <path d="M256 224q0-26.5-18.75-45.25T192 160t-45.25 18.75T128 224t18.75 45.25T192 288t45.25-18.75T256 224zm34.5 0q0 41-28.75 69.75T192 322.5t-69.75-28.75T93.5 224t28.75-69.75T192 125.5t69.75 28.75T290.5 224zm27-102.5q0 9.5-6.75 16.25t-16.25 6.75-16.25-6.75-6.75-16.25 6.75-16.25 16.25-6.75 16.25 6.75 6.75 16.25zM192 66.5q-1.75 0-19.125-.125t-26.375 0-24.125.75-25.75 2.5T78.75 74.25q-12.5 5-22 14.5t-14.5 22q-2.75 7.25-4.625 17.875t-2.5 25.75-.75 24.125 0 26.375T34.5 224t-.125 19.125 0 26.375.75 24.125 2.5 25.75 4.625 17.875q5 12.5 14.5 22t22 14.5q7.25 2.75 17.875 4.625t25.75 2.5 24.125.75 26.375 0T192 381.5t19.125.125 26.375 0 24.125-.75 25.75-2.5 17.875-4.625q12.5-5 22-14.5t14.5-22q2.75-7.25 4.625-17.875t2.5-25.75.75-24.125 0-26.375T349.5 224t.125-19.125 0-26.375-.75-24.125-2.5-25.75-4.625-17.875q-5-12.5-14.5-22t-22-14.5q-7.25-2.75-17.875-4.625t-25.75-2.5-24.125-.75-26.375 0T192 66.5zM384 224q0 57.25-1.25 79.25-2.5 52-31 80.5t-80.5 31Q249.25 416 192 416t-79.25-1.25q-52-2.5-80.5-31t-31-80.5Q0 281.25 0 224t1.25-79.25q2.5-52 31-80.5t80.5-31Q134.75 32 192 32t79.25 1.25q52 2.5 80.5 31t31 80.5q1.25 22 1.25 79.25z"/>
</svg>
