<svg xmlns="http://www.w3.org/2000/svg" viewBox="0 0 430 430">
  <title>linkedin</title>
  <path fill-rule="evenodd" d="M110.25 151.25V399h-82.5V151.25h82.5zm5.25-76.5c.167 12.167-4.042 22.333-12.625 30.5C94.292 113.417 83 117.5 69 117.5h-.5c-13.667 0-24.667-4.083-33-12.25C27.167 97.083 23 86.917 23 74.75c0-12.333 4.292-22.542 12.875-30.625C44.458 36.042 55.667 32 69.5 32c13.833 0 24.917 4.042 33.25 12.125 8.333 8.083 12.583 18.292 12.75 30.625zM407 257v142h-82.25V266.5c0-17.5-3.375-31.208-10.125-41.125-6.75-9.917-17.292-14.875-31.625-14.875-10.5 0-19.292 2.875-26.375 8.625-7.083 5.75-12.375 12.875-15.875 21.375-1.833 5-2.75 11.75-2.75 20.25V399h-82.25c.333-66.5.5-120.417.5-161.75s-.083-66-.25-74l-.25-12H238v36h-.5c3.333-5.333 6.75-10 10.25-14s8.208-8.333 14.125-13 13.167-8.292 21.75-10.875 18.125-3.875 28.625-3.875c28.5 0 51.417 9.458 68.75 28.375S407 220.5 407 257z"/>
</svg>
