<svg version="1.1" xmlns="http://www.w3.org/2000/svg" xmlns:xlink="http://www.w3.org/1999/xlink" width="576" height="448" viewBox="0 0 576 448">
  <path d="M411.25 274.5q0-14.75-8.5-26.625t-21.75-17.125q-1.75 11.25-5.75 23-1.75 6-6.875 9.5t-11.125 3.5q-3 0-6-0.75-7.75-2.5-11.25-9.625t-1-14.625q5.75-17.75 5.75-35.75 0-30.75-15.25-56.875t-41.5-41.375-57-15.25q-33.5 0-61.75 18.25t-41.75 48.5q27 7 47 26.5 5.5 5.75 5.5 13.75t-5.5 13.5-13.5 5.5-13.75-5.5q-18.75-18.75-45-18.75-26.5 0-45.25 18.625t-18.75 45.125 18.75 45.125 45.25 18.625h261.5q19.75 0 33.625-13.875t13.875-33.375zM449.5 274.5q0 35.5-25.125 60.5t-60.625 25h-261.5q-42.25 0-72.25-29.875t-30-72.125q0-38.25 25-66.75t62.25-34q15.5-46 55.25-74.5t88.5-28.5q58.75 0 102.125 39.625t49.125 97.375q29 6.25 48.125 29.625t19.125 53.625zM512 274.5q0 43.75-24.25 79.75-5.75 8.25-16 8.25-6 0-10.75-3.25-6.5-4.25-8-12.125t3-14.375q17.75-26 17.75-58.25t-17.75-58.25q-4.5-6.5-3-14.25t8-12.25 14.375-2.875 12.375 8.125q24.25 35.5 24.25 79.5zM576 274.5q0 61-33.5 110.75-5.75 8.5-16 8.5-5.75 0-10.5-3.25-6.5-4.5-8.125-12.25t2.875-14.25q27-41 27-89.5 0-48.75-27-89.25-4.5-6.5-2.875-14.375t8.125-12.125q6.5-4.5 14.25-3t12.25 8.25q33.5 49.5 33.5 110.5z"></path>
</svg>
