<svg version="1.1" xmlns="http://www.w3.org/2000/svg" xmlns:xlink="http://www.w3.org/1999/xlink" width="320" height="448" viewBox="0 0 320 448">
  <path d="M0 149.25q0-27 9.375-50.875t25.875-41.625 38-30.75 46.25-19.5 50.5-6.5q39.5 0 73.5 16.625t55.25 48.375 21.25 71.75q0 24-4.75 47t-15 44.25-25 37.375-36.25 25.75-47.25 9.625q-17 0-33.75-8t-24-22q-2.5 9.75-7 28.125t-5.875 23.75-5.125 17.75-6.5 17.75-8 15.625-11.5 19.375-15.5 21.625l-3.5 1.25-2.25-2.5q-3.75-39.25-3.75-47 0-23 5.375-51.625t16.625-71.875 13-50.75q-8-16.25-8-42.25 0-20.75 13-39t33-18.25q15.25 0 23.75 10.125t8.5 25.625q0 16.5-11 47.75t-11 46.75q0 15.75 11.25 26.125t27.25 10.375q13.75 0 25.5-6.25t19.625-17 14-23.75 9.5-27.625 5-27.75 1.625-24.875q0-43.25-27.375-67.375t-71.375-24.125q-50 0-83.5 32.375t-33.5 82.125q0 11 3.125 21.25t6.75 16.25 6.75 11.375 3.125 7.625q0 7-3.75 18.25t-9.25 11.25q-0.5 0-4.25-0.75-12.75-3.75-22.625-14t-15.25-23.625-8.125-27-2.75-26.625z"></path>
</svg>
