<svg version="1.1" xmlns="http://www.w3.org/2000/svg" xmlns:xlink="http://www.w3.org/1999/xlink" width="384" height="448" viewBox="0 0 384 448">
  <path d="M293.25 265.75q0-12.5-4.875-22.875t-12.125-17.125-18.25-12.25-20.625-8.5-21.875-5.75l-26-6q-7.5-1.75-11-2.625t-8.75-2.875-7.5-4-4.125-5.25-1.875-7.5q0-19.25 36-19.25 10.75 0 19.25 3t13.5 7.125 9.5 8.375 10 7.25 12 3q11.75 0 18.875-8t7.125-19.25q0-13.75-14-24.875t-35.5-16.875-45.5-5.75q-17 0-33 3.875t-29.875 11.75-22.25 21.75-8.375 32.125q0 15.25 4.75 26.625t14 18.875 20 12.125 25.75 8.125l36.5 9q22.5 5.5 28 9 8 5 8 15 0 9.75-10 16.125t-26.25 6.375q-12.75 0-22.875-4t-16.25-9.625-11.375-11.25-11.5-9.625-13.5-4q-12.5 0-18.875 7.5t-6.375 18.75q0 23 30.5 39.375t72.75 16.375q18.25 0 35-4.625t30.625-13.375 22.125-23.375 8.25-32.875zM384 320q0 39.75-28.125 67.875t-67.875 28.125q-32.5 0-58.5-20-19.25 4-37.5 4-35.75 0-68.375-13.875t-56.25-37.5-37.5-56.25-13.875-68.375q0-18.25 4-37.5-20-26-20-58.5 0-39.75 28.125-67.875t67.875-28.125q32.5 0 58.5 20 19.25-4 37.5-4 35.75 0 68.375 13.875t56.25 37.5 37.5 56.25 13.875 68.375q0 18.25-4 37.5 20 26 20 58.5z"></path>
</svg>
