<svg version="1.1" xmlns="http://www.w3.org/2000/svg" xmlns:xlink="http://www.w3.org/1999/xlink" width="576" height="448" viewBox="0 0 576 448">
  <path d="M196 343l4-60.25-4-130.75q-0.25-2.5-1.875-4.25t-4.125-1.75q-2.25 0-4 1.75t-1.75 4.25l-3.5 130.75 3.5 60.25q0.25 2.5 1.875 4.125t3.875 1.625q5.5 0 6-5.75zM270 335.75l2.75-52.75-3-146.5q0-4-3.25-6-2-1.25-4-1.25t-4 1.25q-3.25 2-3.25 6l-0.25 1.5-2.5 144.75q0 0.25 2.75 59v0.25q0 2.5 1.5 4.25 2.25 2.75 5.75 2.75 2.75 0 5-2.25 2.25-1.75 2.25-5zM8.75 250.75l5 32-5 31.5q-0.5 2.25-2.25 2.25t-2.25-2.25l-4.25-31.5 4.25-32q0.5-2.25 2.25-2.25t2.25 2.25zM30.25 231l6.5 51.75-6.5 50.75q-0.5 2.25-2.5 2.25-2.25 0-2.25-2.5l-5.75-50.5 5.75-51.75q0-2.25 2.25-2.25 2 0 2.5 2.25zM53.25 221.5l6.25 61.25-6.25 59.25q0 2.75-2.75 2.75-2.5 0-3-2.75l-5.25-59.25 5.25-61.25q0.5-3 3-3 2.75 0 2.75 3zM76.75 219.75l5.75 63-5.75 61q-0.5 3.25-3.5 3.25-3.25 0-3.25-3.25l-5.25-61 5.25-63q0-3.25 3.25-3.25 3 0 3.5 3.25zM100.25 224.25l5.25 58.5-5.25 61.5q-0.5 4-4 4-1.5 0-2.625-1.125t-1.125-2.875l-5-61.5 5-58.5q0-1.5 1.125-2.625t2.625-1.125q3.5 0 4 3.75zM123.75 187.75l5.25 95-5.25 61.5q0 1.75-1.25 3.125t-3 1.375q-4 0-4.5-4.5l-4.5-61.5 4.5-95q0.5-4.5 4.5-4.5 1.75 0 3 1.375t1.25 3.125zM147.25 166.25l4.75 117-4.75 61q0 2-1.375 3.375t-3.375 1.375q-4.5 0-5-4.75l-4-61 4-117q0.5-4.75 5-4.75 2 0 3.375 1.375t1.375 3.375zM171.75 156.25l4.5 126.5-4.5 60.5q-0.5 5.25-5.5 5.25-4.75 0-5.25-5.25l-4-60.5 4-126.5q0-2.25 1.625-3.875t3.625-1.625q2.25 0 3.75 1.625t1.75 3.875zM269.75 341.75v0 0zM220.25 155.25l3.75 127.5-3.75 59.75q0 2.5-1.875 4.375t-4.375 1.875-4.25-1.75-2-4.5l-3.5-59.75 3.5-127.5q0-2.75 1.875-4.5t4.375-1.75 4.375 1.75 1.875 4.5zM245 160l3.5 123-3.5 59q0 2.75-2 4.75t-4.75 2-4.75-2-2.25-4.75l-3-59 3-123q0.25-3 2.25-5t4.75-2 4.625 2 2.125 5zM298 283l-3.5 57.75q0 3.25-2.25 5.5t-5.5 2.25-5.5-2.25-2.5-5.5l-1.5-28.5-1.5-29.25 3-159v-0.75q0.5-3.75 3-6 2.25-1.75 5-1.75 2 0 3.75 1.25 3.5 2 4 6.5zM576 278.25q0 29.25-20.75 49.875t-50 20.625h-196.5q-3.25-0.5-5.5-2.75t-2.25-5.5v-224.75q0-5.75 7-8.25 21.25-8.5 45.25-8.5 48.75 0 84.5 32.875t40 80.875q13.25-5.5 27.5-5.5 29.25 0 50 20.75t20.75 50.25z"></path>
</svg>
