<svg version="1.1" xmlns="http://www.w3.org/2000/svg" xmlns:xlink="http://www.w3.org/1999/xlink" width="384" height="448" viewBox="0 0 384 448">
  <path d="M176 336v-256q0-3.5-2.25-5.75t-5.75-2.25h-120q-3.5 0-5.75 2.25t-2.25 5.75v256q0 3.5 2.25 5.75t5.75 2.25h120q3.5 0 5.75-2.25t2.25-5.75zM344 240v-160q0-3.5-2.25-5.75t-5.75-2.25h-120q-3.5 0-5.75 2.25t-2.25 5.75v160q0 3.5 2.25 5.75t5.75 2.25h120q3.5 0 5.75-2.25t2.25-5.75zM384 48v352q0 6.5-4.75 11.25t-11.25 4.75h-352q-6.5 0-11.25-4.75t-4.75-11.25v-352q0-6.5 4.75-11.25t11.25-4.75h352q6.5 0 11.25 4.75t4.75 11.25z"></path>
</svg>
