<svg version="1.1" xmlns="http://www.w3.org/2000/svg" xmlns:xlink="http://www.w3.org/1999/xlink" width="273" height="448" viewBox="0 0 273 448">
  <path d="M236 332.25l20 59.25q-5.75 8.75-27.75 16.5t-44.25 8q-26 0.5-47.625-6.5t-35.625-18.5-23.75-26.5-13.875-30-4.125-29.5v-136h-42v-53.75q18-6.5 32.25-17.375t22.75-22.5 14.5-25.5 8.5-24.75 3.75-22.125q0.25-1.25 1.125-2.125t1.875-0.875h61v106h83.25v63h-83.5v129.5q0 7.5 1.625 14t5.625 13.125 12.375 10.375 20.375 3.5q19.5-0.5 33.5-7.25z"></path>
</svg>
