<svg xmlns="http://www.w3.org/2000/svg" viewBox="0 0 430 430">
  <title>twitter</title>
  <path fill-rule="evenodd" d="M412 93c-11.167 16.333-24.667 30.25-40.5 41.75.167 2.333.25 5.833.25 10.5 0 21.667-3.167 43.292-9.5 64.875s-15.958 42.292-28.875 62.125-28.292 37.375-46.125 52.625-39.333 27.417-64.5 36.5C197.583 370.458 170.667 375 142 375c-45.167 0-86.5-12.083-124-36.25 5.833.667 12.333 1 19.5 1 37.5 0 70.917-11.5 100.25-34.5-17.5-.333-33.167-5.708-47-16.125-13.833-10.417-23.333-23.708-28.5-39.875 5.5.833 10.583 1.25 15.25 1.25 7.167 0 14.25-.917 21.25-2.75-18.667-3.833-34.125-13.125-46.375-27.875S34 188 34 168.5v-1c11.333 6.333 23.5 9.75 36.5 10.25-11-7.333-19.75-16.917-26.25-28.75-6.5-11.833-9.75-24.667-9.75-38.5 0-14.667 3.667-28.25 11-40.75 20.167 24.833 44.708 44.708 73.625 59.625C148.042 144.292 179 152.583 212 154.25c-1.333-6.333-2-12.5-2-18.5 0-22.333 7.875-41.375 23.625-57.125S268.417 55 290.75 55c23.333 0 43 8.5 59 25.5C367.917 77 385 70.5 401 61c-6.167 19.167-18 34-35.5 44.5 15.5-1.667 31-5.833 46.5-12.5z"/>
</svg>
