<svg version="1.1" xmlns="http://www.w3.org/2000/svg" xmlns:xlink="http://www.w3.org/1999/xlink" width="485" height="448" viewBox="0 0 485 448">
  <path d="M479.25 130q5.75 16-37.5 73.5-6 8-16.25 21.25-19.5 25-22.5 32.75-4.25 10.25 3.5 20.25 4.25 5.25 20.25 20.5h0.25l1 1q35.25 32.75 47.75 55.25 0.75 1.25 1.625 3.125t1.75 6.625-0.125 8.5-6.25 6.875-14.75 3.125l-64 1q-6 1.25-14-1.25t-13-5.5l-5-3q-7.5-5.25-17.5-16t-17.125-19.375-15.25-14.5-14.125-3.875q-0.75 0.25-2 0.875t-4.25 3.625-5.375 7.375-4.25 13-1.625 19.375q0 3.75-0.875 6.875t-1.875 4.625l-1 1.25q-4.5 4.75-13.25 5.5h-28.75q-17.75 1-36.5-4.125t-32.875-13.25-25.75-16.5-17.625-14.375l-6.25-6q-2.5-2.5-6.875-7.5t-17.875-22.75-26.5-37.75-30.625-52.75-32.625-68q-1.5-4-1.5-6.75t0.75-4l1-1.5q3.75-4.75 14.25-4.75l68.5-0.5q3 0.5 5.75 1.625t4 2.125l1.25 0.75q4 2.75 6 8 5 12.5 11.5 25.875t10.25 20.375l4 7.25q7.25 15 14 26t12.125 17.125 10.375 9.625 8.5 3.5 6.75-1.25q0.5-0.25 1.25-1.25t3-5.5 3.375-11.75 2.375-20.25 0-31.25q-0.5-10-2.25-18.25t-3.5-11.5l-1.5-3q-6.25-8.5-21.25-10.75-3.25-0.5 1.25-6 4.25-4.75 9.5-7.5 13.25-6.5 59.75-6 20.5 0.25 33.75 3.25 5 1.25 8.375 3.375t5.125 6 2.625 8 0.875 11.375-0.25 13.75-0.625 17.625-0.375 20.625q0 2.75-0.25 10.5t-0.125 12 0.875 10.125 2.875 9.75 5.625 6.125q2 0.5 4.25 1t6.5-2.75 9.5-8.625 13-16.75 17-26.875q15-26 26.75-56.25 1-2.5 2.5-4.375t2.75-2.625l1-0.75 1.25-0.625t3.25-0.75 5-0.125l72-0.5q9.75-1.25 16 0.625t7.75 4.125z"></path>
</svg>
