<svg version="1.1" xmlns="http://www.w3.org/2000/svg" xmlns:xlink="http://www.w3.org/1999/xlink" width="384" height="448" viewBox="0 0 384 448">
  <path d="M242.75 311v52.75q0 16.75-9.75 16.75-5.75 0-11.25-5.5v-75.25q5.5-5.5 11.25-5.5 9.75 0 9.75 16.75zM327.25 311.25v11.5h-22.5v-11.5q0-17 11.25-17t11.25 17zM85.75 256.75h26.75v-23.5h-78v23.5h26.25v142.25h25v-142.25zM157.75 399h22.25v-123.5h-22.25v94.5q-7.5 10.5-14.25 10.5-4.5 0-5.25-5.25-0.25-0.75-0.25-8.75v-91h-22.25v97.75q0 12.25 2 18.25 3 9.25 14.5 9.25 12 0 25.5-15.25v13.5zM265 362v-49.25q0-18.25-2.25-24.75-4.25-14-17.75-14-12.5 0-23.25 13.5v-54.25h-22.25v165.75h22.25v-12q11.25 13.75 23.25 13.75 13.5 0 17.75-13.75 2.25-6.75 2.25-25zM349.5 359.5v-3.25h-22.75q0 12.75-0.5 15.25-1.75 9-10 9-11.5 0-11.5-17.25v-21.75h44.75v-25.75q0-19.75-6.75-29-9.75-12.75-26.5-12.75-17 0-26.75 12.75-7 9.25-7 29v43.25q0 19.75 7.25 29 9.75 12.75 27 12.75 18 0 27-13.25 4.5-6.75 5.25-13.5 0.5-2.25 0.5-14.5zM197.5 131.25v-52.5q0-17.25-10.75-17.25t-10.75 17.25v52.5q0 17.5 10.75 17.5t10.75-17.5zM377.25 319q0 58.5-6.5 87.5-3.5 14.75-14.5 24.75t-25.5 11.5q-46 5.25-138.75 5.25t-138.75-5.25q-14.5-1.5-25.625-11.5t-14.375-24.75q-6.5-28-6.5-87.5 0-58.5 6.5-87.5 3.5-14.75 14.5-24.75t25.75-11.75q45.75-5 138.5-5t138.75 5q14.5 1.75 25.625 11.75t14.375 24.75q6.5 28 6.5 87.5zM127.75 0h25.5l-30.25 99.75v67.75h-25v-67.75q-3.5-18.5-15.25-53-9.25-25.75-16.25-46.75h26.5l17.75 65.75zM220.25 83.25v43.75q0 20.25-7 29.5-9.25 12.75-26.5 12.75-16.75 0-26.25-12.75-7-9.5-7-29.5v-43.75q0-20 7-29.25 9.5-12.75 26.25-12.75 17.25 0 26.5 12.75 7 9.25 7 29.25zM304 42.75v124.75h-22.75v-13.75q-13.25 15.5-25.75 15.5-11.5 0-14.75-9.25-2-6-2-18.75v-98.5h22.75v91.75q0 8.25 0.25 8.75 0.75 5.5 5.25 5.5 6.75 0 14.25-10.75v-95.25h22.75z"></path>
</svg>
